<?xml version="1.0" encoding="UTF-8" standalone="no"?>
<svg
   viewBox="0 0 24 24"
   fill="none"
   stroke="currentColor"
   stroke-width="1.5"
   stroke-linecap="round"
   stroke-linejoin="round"
   version="1.1"
   id="svg1"
   xmlns="http://www.w3.org/2000/svg"
   xmlns:svg="http://www.w3.org/2000/svg">
  <defs
     id="defs1" />
  <g
     id="Layer_2"
     transform="matrix(0.04049709,0,0,0.04049709,1.6325425,1.632745)"
     style="stroke:none">

<g
   id="g3"
   style="stroke:none">

<path
   class="st0"
   d="m 471.46,212.99 -42.07,-7.92 c -3.63,-12.37 -8.58,-24.3 -14.79,-35.64 l 24.16,-35.37 c 4.34,-6.35 3.54,-14.9 -1.9,-20.34 L 398.28,75.14 C 392.84,69.7 384.29,68.9 377.94,73.24 L 342.57,97.4 C 331.23,91.19 319.3,86.24 306.93,82.62 l -7.92,-42.07 c -1.42,-7.56 -8.03,-13.04 -15.72,-13.04 h -54.57 c -7.69,0 -14.3,5.48 -15.72,13.04 l -7.92,42.07 c -12.37,3.63 -24.3,8.58 -35.64,14.78 L 134.07,73.24 c -6.35,-4.34 -14.9,-3.54 -20.34,1.9 l -38.58,38.58 c -5.44,5.44 -6.24,13.98 -1.9,20.34 l 24.16,35.37 C 91.2,180.77 86.25,192.7 82.62,205.07 l -42.07,7.92 c -7.56,1.42 -13.04,8.03 -13.04,15.72 v 54.57 c 0,7.69 5.48,14.3 13.04,15.72 l 42.07,7.92 c 3.63,12.37 8.58,24.3 14.79,35.64 l -24.16,35.37 c -4.34,6.35 -3.54,14.9 1.9,20.34 l 38.58,38.58 c 5.44,5.44 13.99,6.24 20.34,1.9 l 35.37,-24.16 c 11.34,6.21 23.27,11.16 35.64,14.79 l 7.92,42.07 c 1.42,7.56 8.03,13.04 15.72,13.04 h 54.57 c 7.69,0 14.3,-5.48 15.72,-13.04 l 7.92,-42.07 c 12.37,-3.63 24.3,-8.58 35.64,-14.79 l 35.37,24.16 c 6.35,4.34 14.9,3.54 20.34,-1.9 l 38.58,-38.58 c 5.44,-5.44 6.24,-13.98 1.9,-20.34 L 414.6,342.56 c 6.21,-11.34 11.16,-23.27 14.79,-35.64 L 471.46,299 c 7.56,-1.42 13.04,-8.03 13.04,-15.72 v -54.57 c 0,-7.69 -5.48,-14.29 -13.04,-15.72 z m -18.96,57.02 -38.98,7.34 c -6.25,1.18 -11.21,5.94 -12.63,12.14 -3.69,16.02 -10,31.25 -18.77,45.25 -3.37,5.39 -3.24,12.26 0.35,17.51 l 22.39,32.78 -19.82,19.82 -32.78,-22.39 c -5.25,-3.59 -12.12,-3.73 -17.51,-0.35 -14.01,8.77 -29.24,15.08 -45.25,18.77 -6.2,1.43 -10.96,6.38 -12.14,12.63 l -7.34,38.98 h -28.03 l -7.34,-38.98 c -1.18,-6.25 -5.94,-11.21 -12.14,-12.63 -16.02,-3.69 -31.24,-10 -45.25,-18.77 -5.39,-3.37 -12.26,-3.24 -17.51,0.35 l -32.78,22.39 -19.82,-19.82 22.39,-32.78 c 3.59,-5.25 3.72,-12.12 0.35,-17.51 -8.77,-14.01 -15.08,-29.24 -18.77,-45.25 -1.43,-6.2 -6.38,-10.96 -12.63,-12.14 l -38.98,-7.34 v -28.03 l 38.98,-7.34 c 6.25,-1.18 11.21,-5.94 12.63,-12.14 3.69,-16.02 10,-31.25 18.77,-45.25 3.37,-5.39 3.24,-12.26 -0.35,-17.51 l -22.39,-32.78 19.82,-19.82 32.78,22.39 c 5.25,3.58 12.12,3.72 17.51,0.35 14.01,-8.77 29.24,-15.08 45.25,-18.77 6.2,-1.43 10.96,-6.38 12.14,-12.63 l 7.34,-38.98 h 28.03 l 7.34,38.98 c 1.18,6.25 5.94,11.21 12.14,12.63 16.02,3.69 31.24,10 45.25,18.77 5.39,3.37 12.26,3.24 17.51,-0.35 l 32.78,-22.39 19.82,19.82 -22.39,32.78 c -3.59,5.25 -3.72,12.12 -0.35,17.51 8.77,14.01 15.08,29.24 18.77,45.25 1.43,6.2 6.38,10.96 12.63,12.14 l 38.98,7.34 z"
   id="path2"
   style="fill:#333333;stroke:none" />


<path
   class="st0"
   d="m 256,148.26 c -59.41,0 -107.74,48.33 -107.74,107.74 0,59.41 48.33,107.74 107.74,107.74 59.41,0 107.74,-48.33 107.74,-107.74 0,-59.41 -48.33,-107.74 -107.74,-107.74 z m 0,183.48 c -41.76,0 -75.74,-33.98 -75.74,-75.74 0,-41.76 33.98,-75.74 75.74,-75.74 41.76,0 75.74,33.98 75.74,75.74 0,41.76 -33.98,75.74 -75.74,75.74 z"
   id="path3"
   style="fill:#333333;stroke:none" />


</g>


</g>
</svg>
