<?xml version="1.0" encoding="UTF-8"?>
<!-- Uploaded to: SVG Repo, www.svgrepo.com, Generator: SVG Repo Mixer Tools -->
<svg width="26" height="25.956" version="1.1" viewBox="0 0 12.415 12.394" xml:space="preserve" xmlns="http://www.w3.org/2000/svg">

<path d="m0 6.2448v-6.2448h12.415v12.394h-12.415zm11.868 6.0538c0.20296-0.09967 0.33106-0.22706 0.43035-0.42795l0.08725-0.17654v-10.991l-0.08725-0.17654c-0.099286-0.20089-0.22739-0.32828-0.43035-0.42795l-0.13001-0.063848h-11.056l-0.13001 0.063848c-0.20296 0.099671-0.33106 0.22706-0.43035 0.42795l-0.087251 0.17654v10.989l0.07176 0.15143c0.087177 0.18397 0.18143 0.29484 0.33372 0.39256 0.22628 0.1452-0.18971 0.13581 5.8046 0.13108l5.4931-0.0043zm-10.018-4.6892v-2.9605h1.8503v5.921h-1.8503zm2.9836 0v-2.9605h1.7809v0.81857l0.071117-0.11214c0.090949-0.14341 0.30089-0.36469 0.44928-0.47355 0.4302-0.31559 0.87873-0.42698 1.5042-0.37358 0.60825 0.051933 0.98008 0.20361 1.3059 0.53273 0.29461 0.29754 0.44941 0.63201 0.55882 1.2074 0.04824 0.2537 0.05022 0.33021 0.05916 2.292l0.0092 2.0296h-1.853l-7.583e-4 -1.7173c-6.139e-4 -1.3452-0.0076303-1.7549-0.03228-1.8908-0.071785-0.39564-0.21142-0.6174-0.46845-0.74397-0.15221-0.07495-0.1647-0.077108-0.44623-0.077108-0.24985 0-0.30978 0.00764-0.43626 0.055634-0.20322 0.077108-0.37349 0.23726-0.47795 0.44955-0.15972 0.3246-0.15768 0.29764-0.16723 2.2067l-0.0086 1.7173h-1.8479zm-2.3878-3.8149c-0.77918-0.24909-0.99439-1.2671-0.3839-1.816 0.41938-0.37706 1.0622-0.35713 1.4648 0.045416 0.48227 0.48227 0.39793 1.287-0.1733 1.6536-0.24935 0.16-0.62252 0.20811-0.90755 0.117z" fill="#d9d9d9" stroke-width=".15137"/></svg>
