<?xml version="1.0" encoding="UTF-8" standalone="no"?>
<!-- Created with Inkscape (http://www.inkscape.org/) -->

<svg
   version="1.1"
   id="svg1"
   width="128"
   height="128"
   viewBox="0 0 1024 1024"
   sodipodi:docname="Logo_Full.svg"
   inkscape:version="1.4.2 (f4327f4, 2025-05-13)"
   inkscape:export-filename="Logo.png"
   inkscape:export-xdpi="96"
   inkscape:export-ydpi="96"
   xmlns:inkscape="http://www.inkscape.org/namespaces/inkscape"
   xmlns:sodipodi="http://sodipodi.sourceforge.net/DTD/sodipodi-0.dtd"
   xmlns="http://www.w3.org/2000/svg"
   xmlns:svg="http://www.w3.org/2000/svg">
  <defs
     id="defs1" />
  <sodipodi:namedview
     id="namedview1"
     pagecolor="#ffffff"
     bordercolor="#000000"
     borderopacity="0.25"
     inkscape:showpageshadow="2"
     inkscape:pageopacity="0.0"
     inkscape:pagecheckerboard="0"
     inkscape:deskcolor="#d1d1d1"
     inkscape:zoom="4"
     inkscape:cx="254.125"
     inkscape:cy="26.875"
     inkscape:window-width="3840"
     inkscape:window-height="2054"
     inkscape:window-x="-11"
     inkscape:window-y="-11"
     inkscape:window-maximized="1"
     inkscape:current-layer="g1" />
  <g
     inkscape:groupmode="layer"
     inkscape:label="Image"
     id="g1">
    <path
       id="path30"
       style="fill:#4d4d4d"
       d="m 411.93164,612.30316 c -0.77966,-0.0336 -1.52517,0.2036 -2.3418,0.6406 -4.69499,2.5127 -5.08984,4.3792 -5.08984,24.1035 0,10.236 0.29932,18.9108 0.66602,19.2774 0.3666,0.3667 2.38021,0.666 4.4746,0.666 h 3.8086 l 0.27539,-15.5586 0.27539,-15.5566 13.80664,15.5566 c 11.91479,13.4261 14.21,15.5586 16.75,15.5586 1.6188,0 3.84336,-0.9 4.94336,-2 1.8667,-1.8667 2,-3.3333 2,-22 v -20 h -4.55078 -4.54883 l 0.29883,15.002 c 0.165,8.2507 0.0624,15.0008 -0.22852,15 -0.9296,-0.003 -12.36163,-12.2118 -19.85742,-21.2071 -5.70764,-6.8494 -8.34265,-9.3816 -10.68164,-9.4824 z m 455.69727,0.5605 -18.1543,0.3125 -18.15234,0.3145 -2.41016,2.8066 c -2.03351,2.3662 -2.41211,3.8633 -2.41211,9.5606 0,5.4766 0.39652,7.182 2.0957,9.0058 3.2615,3.5008 6.14055,4.127 18.96875,4.127 H 859.5 v 3.9414 c 0,2.1675 -0.5625,4.305 -1.25,4.75 -0.6875,0.4449 -8.22501,0.8086 -16.75,0.8086 H 826 v 3.5 c 0,3.3926 0.13806,3.5182 4.5,4.0996 2.475,0.3299 10.03402,0.667 16.79883,0.75 17.90928,0.2187 21.20117,-1.977 21.20117,-14.1484 0,-6.2426 -0.26166,-7.1153 -2.92383,-9.7774 l -2.92187,-2.9238 h -12.87696 c -13.56999,0 -15.27734,-0.512 -15.27734,-4.5781 0,-3.8223 2.01548,-4.3553 17.56836,-4.6446 L 867,620.49066 l 0.31445,-3.8145 z m -156.12891,0.008 -19.58789,0.3105 -19.58984,0.3086 -2.41016,2.8066 c -2.3204,2.6994 -2.41211,3.3824 -2.41211,18.0274 0,16.859 0.55181,18.6924 6.37891,21.2285 4.35229,1.8947 26.51901,1.9251 31.02343,0.043 5.44362,-2.2745 6.59766,-4.8699 6.59766,-14.8282 v -8.7773 h -11 c -10.96699,0 -11,0.007 -11,2.418 0,4.9326 0.83428,5.582 7.16797,5.582 h 5.95312 l -0.31054,3.75 -0.31055,3.75 -10.86328,0.7246 c -15.09079,1.0068 -14.63672,1.4109 -14.63672,-13.0605 0,-7.8171 0.40192,-12.1676 1.19922,-12.9649 0.8352,-0.8352 6.15561,-1.1992 17.5,-1.1992 H 711.5 v -4.0586 z m -556,0.1191 v 4.5 4.5 h 8.5 8.5 v 17.5 17.5 h 4.5 4.5 v -17.5 -17.5 h 8.5 8.5 v -4.5 -4.5 H 177 Z m 83.0352,0 c -16.7378,0 -18.0355,0.1314 -19,1.9336 -0.6149,1.149 -1.0352,10.0805 -1.0352,22 v 20.0664 h 19 19 v -4.5 -4.5 H 242 227.5 v -4.4688 -4.4687 l 12.25,-0.2813 12.25,-0.2812 v -4 -4 l -12.25,-0.2812 -12.25,-0.2813 v -4.4687 -4.4688 h 14.5 14.5 v -4 -4 z m 98.9648,0 v 22 22 h 4.5 4.5 v -9 -9 h 12.46094 12.46094 l 0.28906,8.75 0.28906,8.75 4.75,0.3047 4.75,0.3047 v -22.0548 -22.0547 h -4.45898 -4.46094 l -0.28906,8.25 -0.29102,8.25 -12.75,0.2793 -12.75,0.2812 v -8.5312 -8.5293 H 342 Z m 175.19922,0 -14.84961,0.0156 c -16.67228,0.0166 -18.90866,0.6369 -21.59766,5.9981 -1.3854,2.7624 -1.73636,5.9776 -1.69336,15.4863 0.0664,14.5216 1.16591,18.3623 5.94141,20.748 2.7836,1.3905 6.11556,1.75 16.28125,1.75 21.41078,0.003 22.71875,-1.3236 22.71875,-23.0488 v -14.1504 l -3.40039,-3.3984 z m 29.80078,0 v 22.0215 22.0234 l 18.75,-0.2734 18.75,-0.2715 v -4 -4 l -14.25,-0.2773 -14.25,-0.2774 v -17.4727 -17.4727 H 547 Z m 62.17773,0 -2.58789,3.0762 c -2.53289,3.0106 -2.58984,3.3998 -2.58984,18.0664 0,17.6912 0.71971,19.8031 7.5,22.0078 3.2006,1.0407 25.68342,0.9435 29.41602,-0.127 1.87199,-0.5369 4.45724,-1.9648 5.74414,-3.1738 2.26789,-2.131 2.33984,-2.6994 2.33984,-18.5703 0,-16.0483 -0.0489,-16.4181 -2.45508,-18.8242 -2.4185,-2.4186 -2.70947,-2.4551 -19.91015,-2.4551 z m 128.82227,0 v 22.0547 22.0547 l 4.75,-0.3047 4.75,-0.3047 0.26953,-21.75 0.26953,-21.75 h -5.01953 z m 53.07227,0 c -14.96536,0 -18.18831,0.2606 -19.5,1.5723 -1.32612,1.3261 -1.57227,4.7638 -1.57227,22.0215 v 20.4492 l 19.25,-0.2715 19.25,-0.2715 v -4 -4 l -14.75,-0.2773 -14.75,-0.2754 v -4.4434 -4.4414 l 12.25,-0.2813 12.25,-0.2812 0.30664,-4.2188 0.30469,-4.2187 -12.30469,-0.2813 L 775,629.49076 v -4 -4 l 14.75,-0.2773 14.75,-0.2754 v -3.9746 -3.9727 z m -484.80857,0.0449 c -6.9676,0.0382 -14.2537,0.379 -16.4688,0.9942 -6.8746,1.9093 -7.7949,4.2891 -7.7949,20.1445 0,17.2246 0.8972,19.4363 9,22.1777 0.825,0.2791 8.025,0.4237 16,0.3223 l 14.5,-0.1836 0.3066,-4.25 0.3086,-4.25 h -14.3574 c -9.8336,0 -14.7367,-0.3773 -15.5586,-1.1992 -1.7441,-1.7441 -1.6428,-22.1879 0.1172,-23.6485 0.774,-0.6424 7.0622,-1.2088 15.25,-1.373 l 13.9336,-0.2793 0.3242,-3.3945 c 0.1949,-2.0419 -0.2037,-3.7295 -1,-4.2344 -0.9431,-0.598 -7.5929,-0.8643 -14.5605,-0.8262 z M 497,620.99076 c 7.29999,0 11.50963,0.41 12.29883,1.1992 1.7094,1.709 1.65304,23.182 -0.0645,24.6074 h -0.002 c -1.4811,1.2293 -20.99035,2.0275 -23.81054,0.9746 -1.7479,-0.6525 -1.92188,-1.7911 -1.92188,-12.5488 0,-7.8695 0.40112,-12.2351 1.19922,-13.0332 0.7892,-0.7892 5.00079,-1.1992 12.30078,-1.1992 z m 124.35938,0.2188 c 8.25829,-0.1881 12.8208,0.0998 13.75,0.871 1.82809,1.5172 1.9929,21.9095 0.1914,23.711 -1.768,1.768 -25.68479,1.6669 -26.36719,-0.1113 -0.2766,-0.7212 -0.37525,-6.4588 -0.21875,-12.75 L 609,621.49076 Z" />
    <g
       id="g55"
       style="fill:#0064ac;fill-opacity:1">
      <path
         id="path55"
         style="fill:#0064ac;fill-opacity:1;stroke-width:0.931211"
         d="m 956.92188,405.17188 -10.875,0.28124 -10.89063,0.28126 0.0625,38.34374 c 0.034,21.08741 -0.24872,38.1875 -0.64063,38 -0.39188,-0.1874 -3.01572,-3.26876 -5.82812,-6.84374 -2.8123,-3.575 -17.02353,-20.78751 -31.57812,-38.25 l -26.46876,-31.75 h -13.6875 -13.6875 v 33.25 c 0,18.2875 0.26463,43.71248 0.57813,56.5 l 0.5625,23.25 H 854.73438 865 l 0.0469,-3.25 c 0.02,-1.78751 0.1597,-10 0.3125,-18.25 0.15278,-8.25 0.32472,-25.04483 0.39062,-37.32813 0.072,-13.4854 0.444,-22.2013 0.9375,-22 0.4494,0.1833 7.19115,8.07288 14.96875,17.54687 7.7777,9.47411 22.71063,27.57133 33.20313,40.20313 l 19.07812,22.96875 11.5,0.0469 11.48438,0.0625 v -56.53126 z m -607.95313,0.0625 c -6.29709,0 -11.39319,0.31052 -11.85937,0.6875 h -0.0156 v 0.0156 0.0156 h -0.0156 v 0.0156 0.0156 h 0.0156 c 0.4655,1.0831 10.09335,23.85568 22.53125,53.25 5.9346,14.02499 13.65785,32.69999 17.15625,41.5 3.4984,8.8 6.65253,16.44999 7.01563,17 0.379,0.57429 5.35808,1 11.6875,1 H 406.5 l 11.90625,-28 c 6.5444,-15.39991 17.30898,-40.60002 23.92187,-56 6.613,-15.39991 12.16924,-28.33751 12.34376,-28.75 v -0.0156 -0.0156 -0.0156 l -0.0156,-0.0156 -0.0156,-0.0156 c -0.46123,-0.37697 -5.49835,-0.67187 -11.71874,-0.67187 h -12.0625 l -8.53126,21.25 c -4.6895,11.6875 -12.38647,30.92499 -17.10937,42.75 -4.7231,11.82499 -8.88902,21.85487 -9.26563,22.29687 -0.61849,0.726 -34.76562,-83.09865 -34.76562,-85.34375 v -0.0156 -0.0156 -0.0156 l -0.0156,-0.0156 -0.0156,-0.0156 c -0.44963,-0.51101 -5.41231,-0.87502 -12.1875,-0.875 z m 110.10937,0 4.60938,7.6875 c 2.5291,4.2278 13.6613,21.63227 24.75,38.67187 l 20.17188,30.96875 v 17.67188 c 0,9.71589 0.15937,17.84902 0.35937,18.07812 0.1999,0.2292 5.28065,0.42187 11.28125,0.42188 h 10.90625 v -18.25 -18.26563 l 12.4375,-19.23437 c 6.8448,-10.58461 18.17839,-27.9125 25.17187,-38.5 l 12.70313,-19.25 -12.79687,0.0312 -12.8125,0.0469 -7.51563,11.70312 c -4.1409,6.4423 -11.70268,17.56876 -16.79687,24.71876 -5.09421,7.14999 -9.69658,13.7875 -10.23438,14.75 -0.48825,0.87414 -1.09094,1.61197 -1.375,1.73437 -0.009,0.003 -0.0232,-0.001 -0.0312,0 h -0.0156 c -0.47428,-0.01 -2.3956,-2.83578 -22.5625,-33.23437 l -13.10937,-19.75 h -12.5625 z m 151.95313,0 -4.70313,10.25 c -2.5868,5.63749 -7.94632,17.44999 -11.89062,26.25 -10.845,24.1961 -32.10485,70.71106 -33.46875,73.21874 -0.6625,1.21812 -1.20282,2.5681 -1.20313,3 v 0.0156 h 0.0156 v 0.0156 l 0.0156,0.0156 v 0.0156 c 0.50202,0.39557 6.03125,0.61152 12.70312,0.5 l 12.71875,-0.20312 5.70313,-12.79688 5.70312,-12.78124 c 11.57975,-26.66233 28.70548,-66.50186 29.73438,-66.5 12.3967,26.72109 24.20883,52.54743 36.60937,79.28124 l 5.64063,12.79688 12.71874,0.20312 12.73438,0.21876 -2.4375,-5 c -8.0826,-16.61591 -19.03938,-40.17321 -32.54688,-70 -8.46848,-18.7 -15.93657,-35.0125 -16.60937,-36.25 -1.1923,-2.19331 -1.61675,-2.25 -16.34375,-2.25 z m 138.9375,0 -8.29687,18.25 c -4.5554,10.0375 -13.44463,29.72499 -19.76563,43.75 -6.3211,14.02499 -14.1651,31.15842 -17.4375,38.07812 -3.2724,6.9197 -5.95312,12.9431 -5.95313,13.375 0,0.4319 0.88003,0.50347 1.95313,0.17188 1.0731,-0.3316 6.81955,-0.61121 12.78125,-0.625 l 10.84375,-0.0313 5.64063,-12.73437 5.625,-12.73437 c 9.36518,-19.49891 28.21468,-66.5 29.5625,-66.5 1.56132,0 8.94365,24.00422 30.28124,66.5 l 5.75,12.90624 5.75,12.90626 12.01563,-0.23438 c 6.6075,-0.1259 12.15851,-0.38254 12.32813,-0.57812 0.16958,-0.19552 -4.36973,-10.39478 -10.07813,-22.67188 -5.7085,-12.2771 -15.34548,-33.35314 -21.42187,-46.82812 -6.07651,-13.47501 -12.98838,-28.66252 -15.35938,-33.75 l -4.3125,-9.25 h -14.95312 z"
         sodipodi:nodetypes="ccccssccccscccccscssccccccsccccccccsssscccccccccscccsscccccsccccssscccccccccscccccccccsssscccccccccccccccssscccssssccccsccccssscccc" />
      <path
         id="path29"
         style="fill:#0064ac;stroke-width:0.628481;fill-opacity:1"
         d="m 205.66457,243.16867 c -0.79849,-0.28784 -2.78257,3.34192 -12.34744,21.70101 -6.54594,12.56436 -12.98189,25.10636 -14.30163,27.87167 -1.31969,2.76532 -8.71875,17.18898 -16.4424,32.05254 -20.91803,40.25531 -41.46244,80.35216 -56.35341,109.98421 -7.29565,14.51791 -15.30194,30.21425 -17.79141,34.88071 -6.00509,11.25626 -28.60326,56.1451 -28.60326,56.8174 0,0.29048 0.35352,0.25384 0.7856,-0.081 0.43208,-0.33486 13.51234,-7.05314 29.06725,-14.93011 15.5549,-7.87699 30.54419,-15.51778 33.30951,-16.98005 2.76531,-1.46225 9.55292,-4.9991 15.08355,-7.85969 5.53062,-2.86059 13.4495,-6.96583 17.59747,-9.12157 4.14797,-2.15573 21.68262,-11.1959 38.96583,-20.09053 17.28322,-8.89464 35.66632,-18.36623 40.85128,-21.04798 17.76413,-9.18792 21.10827,-10.85478 21.3119,-10.62036 0.48619,0.55962 20.12548,38.00237 27.08484,51.63858 l 7.63138,14.95342 29.49197,16.84993 c 16.22067,9.26743 29.59422,16.7659 29.71906,16.66334 0.12484,-0.10255 -3.81079,-8.05116 -8.74596,-17.66252 -4.93516,-9.61138 -10.88904,-21.33939 -13.23124,-26.06356 -2.34221,-4.72417 -6.78634,-13.35008 -9.87526,-19.16868 -8.30355,-15.64138 -30.96048,-59.45917 -47.39141,-91.65392 -7.93865,-15.55489 -16.20774,-31.67546 -18.37694,-35.82343 -5.25655,-10.05158 -43.72465,-85.09088 -47.15081,-91.97675 -0.0843,-0.16945 -0.1744,-0.29153 -0.28847,-0.33265 z m -0.28478,84.52827 5.26107,10.17476 c 2.8936,5.59651 8.99443,17.24642 13.55777,25.88803 11.58686,21.9421 15.49879,29.87302 15.16456,30.74402 -0.15844,0.41287 -12.83282,7.29132 -28.16504,15.28609 -15.33222,7.99477 -35.92314,18.79622 -45.7576,24.00381 -9.83447,5.20758 -18.13049,9.46895 -18.43586,9.46895 -0.62987,0 20.17807,-41.27688 52.33579,-103.81969 z" />
    </g>
  </g>
</svg>
