<svg width="128" height="64" version="1.1" viewBox="0 0 1024 512" xmlns="http://www.w3.org/2000/svg">
	<path d="m411.93 418.18c-0.77966-0.0336-1.5252 0.2036-2.3418 0.6406-4.695 2.5127-5.0898 4.3792-5.0898 24.104 0 10.236 0.29932 18.911 0.66602 19.277 0.3666 0.3667 2.3802 0.666 4.4746 0.666h3.8086l0.27539-15.559 0.27539-15.557 13.807 15.557c11.915 13.426 14.21 15.559 16.75 15.559 1.6188 0 3.8434-0.9 4.9434-2 1.8667-1.8667 2-3.3333 2-22v-20h-9.0996l0.29883 15.002c0.165 8.2507 0.0624 15.001-0.22852 15-0.9296-3e-3 -12.362-12.212-19.857-21.207-5.7076-6.8494-8.3426-9.3816-10.682-9.4824zm455.7 0.5605-18.154 0.3125-18.152 0.3145-2.4102 2.8066c-2.0335 2.3662-2.4121 3.8633-2.4121 9.5606 0 5.4766 0.39652 7.182 2.0957 9.0058 3.2615 3.5008 6.1406 4.127 18.969 4.127h11.936v3.9414c0 2.1675-0.5625 4.305-1.25 4.75-0.6875 0.4449-8.225 0.8086-16.75 0.8086h-15.5v3.5c0 3.3926 0.13806 3.5182 4.5 4.0996 2.475 0.3299 10.034 0.667 16.799 0.75 17.909 0.2187 21.201-1.977 21.201-14.148 0-6.2426-0.26166-7.1153-2.9238-9.7774l-2.9219-2.9238h-12.877c-13.57 0-15.277-0.512-15.277-4.5781 0-3.8223 2.0155-4.3553 17.568-4.6446l14.932-0.2773 0.31445-3.8145zm-156.13 8e-3 -19.588 0.3105-19.59 0.3086-2.4102 2.8066c-2.3204 2.6994-2.4121 3.3824-2.4121 18.027 0 16.859 0.55181 18.692 6.3789 21.228 4.3523 1.8947 26.519 1.9251 31.023 0.043 5.4436-2.2745 6.5977-4.8699 6.5977-14.828v-8.7773h-11c-10.967 0-11 7e-3 -11 2.418 0 4.9326 0.83428 5.582 7.168 5.582h5.9531l-0.31054 3.75-0.31055 3.75-10.863 0.7246c-15.091 1.0068-14.637 1.4109-14.637-13.06 0-7.8171 0.40192-12.168 1.1992-12.965 0.8352-0.8352 6.1556-1.1992 17.5-1.1992h16.301v-4.0586zm-556 0.1191v9h17v35h9v-35h17v-9h-21.5zm83.035 0c-16.738 0-18.036 0.1314-19 1.9336-0.6149 1.149-1.0352 10.08-1.0352 22v20.066h38v-9h-29v-8.9375l12.25-0.2813 12.25-0.2812v-8l-12.25-0.2812-12.25-0.2813v-8.9375h29v-8zm98.965 0v44h9v-18h24.922l0.57812 17.5 9.5 0.6094v-44.11h-8.9199l-0.28906 8.25-0.29102 8.25-12.75 0.2793-12.75 0.2812v-17.06h-4.5zm175.2 0-14.85 0.0156c-16.672 0.0166-18.909 0.6369-21.598 5.9981-1.3854 2.7624-1.7364 5.9776-1.6934 15.486 0.0664 14.522 1.1659 18.362 5.9414 20.748 2.7836 1.3905 6.1156 1.75 16.281 1.75 21.411 3e-3 22.719-1.3236 22.719-23.049v-14.15l-3.4004-3.3984zm29.801 0v44.045l18.75-0.2734 18.75-0.2715v-8l-14.25-0.2773-14.25-0.2774v-34.945h-4.5zm62.178 0-2.5879 3.0762c-2.5329 3.0106-2.5898 3.3998-2.5898 18.066 0 17.691 0.71971 19.803 7.5 22.008 3.2006 1.0407 25.683 0.9435 29.416-0.127 1.872-0.5369 4.4572-1.9648 5.7441-3.1738 2.2679-2.131 2.3398-2.6994 2.3398-18.57 0-16.048-0.0489-16.418-2.4551-18.824-2.4185-2.4186-2.7095-2.4551-19.91-2.4551zm128.82 0v44.109l9.5-0.6094 0.53906-43.5h-5.0195zm53.072 0c-14.965 0-18.188 0.2606-19.5 1.5723-1.3261 1.3261-1.5723 4.7638-1.5723 22.022v20.449l38.5-0.543v-8l-14.75-0.2773-14.75-0.2754v-8.8848l12.25-0.2813 12.25-0.2812 0.30664-4.2188 0.30469-4.2187-24.611-0.5625v-8l14.75-0.2773 14.75-0.2754v-7.9473zm-484.81 0.0449c-6.9676 0.0382-14.254 0.379-16.469 0.9942-6.8746 1.9093-7.7949 4.2891-7.7949 20.144 0 17.225 0.8972 19.436 9 22.178 0.825 0.2791 8.025 0.4237 16 0.3223l14.5-0.1836 0.3066-4.25 0.3086-4.25h-14.357c-9.8336 0-14.737-0.3773-15.559-1.1992-1.7441-1.7441-1.6428-22.188 0.1172-23.648 0.774-0.6424 7.0622-1.2088 15.25-1.373l13.934-0.2793 0.3242-3.3945c0.1949-2.0419-0.2037-3.7295-1-4.2344-0.9431-0.598-7.5929-0.8643-14.56-0.8262zm195.24 7.9551c7.3 0 11.51 0.41 12.299 1.1992 1.7094 1.709 1.653 23.182-0.0645 24.607h-2e-3c-1.4811 1.2293-20.99 2.0275-23.811 0.9746-1.7479-0.6525-1.9219-1.7911-1.9219-12.549 0-7.8695 0.40112-12.235 1.1992-13.033 0.7892-0.7892 5.0008-1.1992 12.301-1.1992zm124.36 0.2188c8.2583-0.1881 12.821 0.0998 13.75 0.871 1.8281 1.5172 1.9929 21.91 0.1914 23.711-1.768 1.768-25.685 1.6669-26.367-0.1113-0.2766-0.7212-0.37525-6.4588-0.21875-12.75l0.28516-11.44z" fill="#4d4d4d"/>
	<g transform="translate(3.6265 -194.13)" fill="#0064ac">
		<path d="m956.92 405.17-10.875 0.28124-10.891 0.28126 0.0625 38.344c0.034 21.087-0.24872 38.188-0.64063 38-0.39188-0.1874-3.0157-3.2688-5.8281-6.8437-2.8123-3.575-17.024-20.788-31.578-38.25l-26.469-31.75h-27.375v33.25c0 18.288 0.26463 43.712 0.57813 56.5l0.5625 23.25h20.531l0.0469-3.25c0.02-1.7875 0.1597-10 0.3125-18.25 0.15278-8.25 0.32472-25.045 0.39062-37.328 0.072-13.485 0.444-22.201 0.9375-22 0.4494 0.1833 7.1912 8.0729 14.969 17.547 7.7777 9.4741 22.711 27.571 33.203 40.203l19.078 22.969 11.5 0.0469 11.484 0.0625v-56.531zm-607.95 0.0625c-6.2971 0-11.393 0.31052-11.859 0.6875h-0.0156v0.0312h-0.0156v0.0312h0.0156c0.4655 1.0831 10.093 23.856 22.531 53.25 5.9346 14.025 13.658 32.7 17.156 41.5 3.4984 8.8 6.6525 16.45 7.0156 17 0.379 0.57429 5.3581 1 11.688 1h11.016l11.906-28c6.5444-15.4 17.309-40.6 23.922-56 6.613-15.4 12.169-28.338 12.344-28.75v-0.0468l-0.0312-0.0312c-0.46123-0.37697-5.4984-0.67187-11.719-0.67187h-12.062l-8.5313 21.25c-4.6895 11.688-12.386 30.925-17.109 42.75-4.7231 11.825-8.889 21.855-9.2656 22.297-0.61849 0.726-34.766-83.099-34.766-85.344v-0.0468l-0.0312-0.0312c-0.44963-0.51101-5.4123-0.87502-12.188-0.875zm110.11 0 4.6094 7.6875c2.5291 4.2278 13.661 21.632 24.75 38.672l20.172 30.969v17.672c0 9.7159 0.15937 17.849 0.35937 18.078 0.1999 0.2292 5.2806 0.42187 11.281 0.42188h10.906v-36.516l12.438-19.234c6.8448-10.585 18.178-27.912 25.172-38.5l12.703-19.25-12.797 0.0312-12.812 0.0469-7.5156 11.703c-4.1409 6.4423-11.703 17.569-16.797 24.719-5.0942 7.15-9.6966 13.788-10.234 14.75-0.48825 0.87414-1.0909 1.612-1.375 1.7344-9e-3 3e-3 -0.0232-1e-3 -0.0312 0h-0.0156c-0.47428-0.01-2.3956-2.8358-22.562-33.234l-13.109-19.75h-12.562zm151.95 0-4.7031 10.25c-2.5868 5.6375-7.9463 17.45-11.891 26.25-10.845 24.196-32.105 70.711-33.469 73.219-0.6625 1.2181-1.2028 2.5681-1.2031 3v0.0156h0.0156v0.0156l0.0156 0.0156v0.0156c0.50202 0.39557 6.0312 0.61152 12.703 0.5l12.719-0.20312 5.7031-12.797 5.7031-12.781c11.58-26.662 28.705-66.502 29.734-66.5 12.397 26.721 24.209 52.547 36.609 79.281l5.6406 12.797 12.719 0.20312 12.734 0.21876-2.4375-5c-8.0826-16.616-19.039-40.173-32.547-70-8.4685-18.7-15.937-35.012-16.609-36.25-1.1923-2.1933-1.6168-2.25-16.344-2.25zm138.94 0-8.2969 18.25c-4.5554 10.038-13.445 29.725-19.766 43.75-6.3211 14.025-14.165 31.158-17.438 38.078s-5.9531 12.943-5.9531 13.375c0 0.4319 0.88003 0.50347 1.9531 0.17188 1.0731-0.3316 6.8196-0.61121 12.781-0.625l10.844-0.0313 5.6406-12.734 5.625-12.734c9.3652-19.499 28.215-66.5 29.562-66.5 1.5613 0 8.9436 24.004 30.281 66.5l11.5 25.812 12.016-0.23438c6.6075-0.1259 12.159-0.38254 12.328-0.57812 0.16958-0.19552-4.3697-10.395-10.078-22.672-5.7085-12.277-15.345-33.353-21.422-46.828-6.0765-13.475-12.988-28.663-15.359-33.75l-4.3125-9.25h-14.953z" stroke-width=".93121"/>
		<path d="m205.66 243.17c-0.79849-0.28784-2.7826 3.3419-12.347 21.701-6.5459 12.564-12.982 25.106-14.302 27.872-1.3197 2.7653-8.7188 17.189-16.442 32.053-20.918 40.255-41.462 80.352-56.353 109.98-7.2956 14.518-15.302 30.214-17.791 34.881-6.0051 11.256-28.603 56.145-28.603 56.817 0 0.29048 0.35352 0.25384 0.7856-0.081 0.43208-0.33486 13.512-7.0531 29.067-14.93 15.555-7.877 30.544-15.518 33.31-16.98 2.7653-1.4622 9.5529-4.9991 15.084-7.8597 5.5306-2.8606 13.45-6.9658 17.597-9.1216 4.148-2.1557 21.683-11.196 38.966-20.091 17.283-8.8946 35.666-18.366 40.851-21.048 17.764-9.1879 21.108-10.855 21.312-10.62 0.48619 0.55962 20.125 38.002 27.085 51.639l7.6314 14.953 29.492 16.85c16.221 9.2674 29.594 16.766 29.719 16.663 0.12484-0.10255-3.8108-8.0512-8.746-17.663-4.9352-9.6114-10.889-21.339-13.231-26.064-2.3422-4.7242-6.7863-13.35-9.8753-19.169-8.3036-15.641-30.96-59.459-47.391-91.654-7.9386-15.555-16.208-31.675-18.377-35.823-5.2566-10.052-43.725-85.091-47.151-91.977-0.0843-0.16945-0.1744-0.29153-0.28847-0.33265zm-0.28478 84.528 5.2611 10.175c2.8936 5.5965 8.9944 17.246 13.558 25.888 11.587 21.942 15.499 29.873 15.165 30.744-0.15844 0.41287-12.833 7.2913-28.165 15.286s-35.923 18.796-45.758 24.004c-9.8345 5.2076-18.13 9.469-18.436 9.469-0.62987 0 20.178-41.277 52.336-103.82z" stroke-width=".62848"/>
	</g>
</svg>
