<?xml version="1.0" encoding="UTF-8"?>
<svg fill="none" version="1.1" viewBox="0 0 24 24" xmlns="http://www.w3.org/2000/svg">
	<path d="m9.1616 7.5972v-0.88699c0-0.68547 0.55632-1.2418 1.2418-1.2418h3.1932c0.68547 0 1.2418 0.55632 1.2418 1.2418v0.88699h1.5966c1.0777 0 1.9514 0.87366 1.9514 1.9514v6.0316c0 1.0777-0.87366 1.9514-1.9514 1.9514h-8.8699c-1.0777 0-1.9514-0.87366-1.9514-1.9514v-6.0316c0-1.0777 0.87366-1.9514 1.9514-1.9514zm1.4192-0.88699c0-0.097924 0.07947-0.1774 0.1774-0.1774h3.1932c0.09792 0 0.1774 0.079475 0.1774 0.1774v0.88699h-3.548zm-3.0158 2.1288c-0.36828 0-0.5322 0.16392-0.5322 0.3548v1.9514h9.9343v-1.9514c0-0.19088-0.16392-0.3548-0.3548-0.3548h-8.5151zm9.4021 3.3706h-9.9343v3.3706c0 0.19088 0.16392 0.3548 0.3548 0.3548h9.2247c0.19088 0 0.3548-0.16392 0.3548-0.3548z" fill="#d9d9d9" stroke-width=".70959"/>
</svg>
